Coordinates
version=1
nRows=16
nColumns=42
inDegrees=yes

Units are S.I. units (second, meters, Newtons, ...)
If the header above contains a line with 'inDegrees', this indicates whether rotational values are in degrees (yes) or radians (no).

endheader
time	pelvis_tilt	pelvis_list	pelvis_rotation	pelvis_tx	pelvis_ty	pelvis_tz	hip_flexion_r	hip_adduction_r	hip_rotation_r	knee_angle_r	knee_adduction_r	knee_angle_r_beta	ankle_angle_r	subtalar_angle_r	mtp_angle_r	hip_flexion_l	hip_adduction_l	hip_rotation_l	knee_angle_l	knee_adduction_l	knee_angle_l_beta	ankle_angle_l	subtalar_angle_l	mtp_angle_l	lumbar_extension	lumbar_bending	lumbar_rotation	arm_flex_r	arm_add_r	arm_rot_r	elbow_flex_r	pro_sup_r	wrist_flex_r	wrist_dev_r	arm_flex_l	arm_add_l	arm_rot_l	elbow_flex_l	pro_sup_l	wrist_flex_l	wrist_dev_l
      3.50000000	      3.03609415	     -3.65127257	     -1.39375297	     -0.06781901	      0.92043413	     -0.07627745	      5.61611432	     -2.38725835	    -20.20314820	     34.23653442	      1.49988904	      0.59754025	     22.21857714	      8.13185726	     -7.57183807	     25.47802852	     -8.47520769	    -17.70787868	     38.50827047	     -4.65390760	      0.67209611	      6.68966355	     -3.75527240	     -7.57183807	    -19.67454613	      6.70654995	     -3.32588052	     10.51084733	    -14.59705774	      6.72649220	     42.15968002	     90.00000001	      0.00000000	      0.00000000	    -14.55199094	    -10.57135553	     -1.53263987	     60.20577626	     90.00000001	      0.00000000	      0.00000000
      3.51000000	      3.03439603	     -3.64151417	     -1.67151818	     -0.06430520	      0.92064125	     -0.07707018	      5.36338701	     -2.39845319	    -19.99490968	     34.09913458	      1.37385642	      0.59514217	     22.23781262	      8.16799614	     -7.57163175	     25.27596950	     -8.27944512	    -17.48455722	     38.72542458	     -4.81664323	      0.67588616	      6.77611264	     -3.84079531	     -7.57163175	    -19.51718714	      6.41931174	     -3.20834325	     10.38821393	    -14.49519472	      6.75853224	     42.16148943	     90.00000001	      0.00000000	      0.00000000	    -14.63309937	    -10.57991170	     -1.56806573	     60.14683437	     90.00000001	      0.00000000	      0.00000000
      3.52000000	      3.24161098	     -3.60918977	     -2.03679839	     -0.06069047	      0.92145980	     -0.07783470	      4.73340875	     -2.44667307	    -19.41408119	     33.66819696	      1.51825199	      0.58762089	     22.29999161	      8.25484161	     -7.57040525	     24.66248282	     -8.13700213	    -17.29278176	     38.76773322	     -4.73881803	      0.67662459	      6.98446245	     -4.67849286	     -7.57040525	    -19.60831179	      6.08910024	     -3.00684641	     10.24407760	    -14.39514211	      6.72803342	     42.34223129	     90.00000001	      0.00000000	      0.00000000	    -14.65557118	    -10.52281075	     -1.68651727	     60.01200249	     90.00000001	      0.00000000	      0.00000000
      3.53000000	      3.20008643	     -3.55264103	     -2.29114450	     -0.05722085	      0.92175570	     -0.07880395	      4.48277789	     -2.53402495	    -19.27554016	     33.44600132	      1.40972680	      0.58374284	     22.26984831	      8.27154226	     -7.57012901	     24.44701891	     -7.99724891	    -17.21410850	     38.94024220	     -4.73774988	      0.67963544	      7.06739228	     -4.87598667	     -7.57012901	    -19.39826735	      5.77992363	     -2.95321633	     10.12991633	    -14.24847213	      6.75547835	     42.41339783	     90.00000001	      0.00000000	      0.00000000	    -14.74448090	    -10.51335840	     -1.72230221	     59.92560609	     90.00000001	      0.00000000	      0.00000000
      3.54000000	      3.37018427	     -3.50850398	     -2.61782791	     -0.05371891	      0.92264052	     -0.07977537	      3.88923830	     -2.64452801	    -18.89216469	     33.01697754	      1.51446482	      0.57625497	     22.19961183	      8.41781129	     -7.56877252	     23.83731949	     -7.89919208	    -17.18226611	     38.88505876	     -4.60215279	      0.67867231	      7.13209651	     -5.73106823	     -7.56877252	    -19.45080683	      5.47077706	     -2.77008976	      9.96735347	    -14.15867407	      6.72946370	     42.71044133	     90.00000001	      0.00000000	      0.00000000	    -14.73989450	    -10.42464450	     -1.89255514	     59.74704330	     90.00000001	      0.00000000	      0.00000000
      3.55000000	      3.25543939	     -3.50376271	     -2.83300807	     -0.05039178	      0.92288706	     -0.08094528	      3.72989996	     -2.72978644	    -18.88768963	     32.84672533	      1.45128339	      0.57328351	     22.17360133	      8.43098716	     -7.56863502	     23.67078075	     -7.85163828	    -17.19931911	     38.96557881	     -4.57012435	      0.68007765	      7.19332477	     -5.81012405	     -7.56863502	    -19.16630979	      5.26472689	     -2.74307776	      9.88702936	    -14.01459695	      6.76544838	     42.78163354	     90.00000001	      0.00000000	      0.00000000	    -14.86176333	    -10.40995009	     -1.91169686	     59.66627734	     90.00000001	      0.00000000	      0.00000000
      3.56000000	      3.13247755	     -3.41928805	     -3.08025846	     -0.04706895	      0.92322609	     -0.08207554	      3.51066506	     -2.88701700	    -18.85662383	     32.51204598	      1.38488164	      0.56744225	     22.11273306	      8.50662163	     -7.56844871	     23.46257410	     -7.80857261	    -17.39734888	     38.97819578	     -4.43082540	      0.68029785	      7.35937380	     -5.96541636	     -7.56844871	    -18.87280713	      4.96954927	     -2.71811124	      9.78164410	    -13.86378894	      6.80515670	     42.93467663	     90.00000001	      0.00000000	      0.00000000	    -14.94930422	    -10.39351221	     -1.98211708	     59.54096471	     90.00000001	      0.00000000	      0.00000000
      3.57000000	      3.34262375	     -3.32776056	     -3.41924674	     -0.04368463	      0.92437557	     -0.08325190	      2.82133366	     -3.09637207	    -18.58940073	     31.91592544	      1.46805975	      0.55703798	     21.89651847	      9.07289418	     -7.56753304	     22.69308176	     -7.74634917	    -17.99913610	     38.66642573	     -4.42816788	      0.67485644	      7.69270265	     -6.26295148	     -7.56753304	    -18.98405194	      4.63732466	     -2.48724786	      9.57124435	    -13.85606523	      6.85516960	     43.46308493	     90.00000001	      0.00000000	      0.00000000	    -14.80764150	    -10.22422819	     -2.31303502	     59.23747243	     90.00000001	      0.00000000	      0.00000000
      3.58000000	      3.17998869	     -3.27171962	     -3.62638610	     -0.04049422	      0.92473351	     -0.08449108	      2.63776138	     -3.26110934	    -18.71656053	     31.58571396	      1.42749409	      0.55127471	     21.85142039	      9.17892824	     -7.56727589	     22.50102217	     -7.76689785	    -18.26860649	     38.58421365	     -4.25219986	      0.67342157	      7.77448108	     -6.23873683	     -7.56727589	    -18.65763245	      4.40393183	     -2.50596588	      9.47672557	    -13.70123572	      6.92561149	     43.64535294	     90.00000001	      0.00000000	      0.00000000	    -14.88204810	    -10.19099262	     -2.37471677	     59.13726112	     90.00000001	      0.00000000	      0.00000000
      3.59000000	      3.02791412	     -3.23677228	     -3.83653962	     -0.03739624	      0.92513895	     -0.08580945	      2.44341907	     -3.42427607	    -18.84117854	     31.24034208	      1.43024410	      0.54524683	     21.76178249	      9.33180613	     -7.56706927	     22.27489840	     -7.78483076	    -18.58980422	     38.43029845	     -4.11227443	      0.67073524	      7.91118304	     -6.21304814	     -7.56706927	    -18.36621820	      4.21277211	     -2.47261572	      9.40733147	    -13.57064810	      6.99434679	     43.87196003	     90.00000001	      0.00000000	      0.00000000	    -14.96820442	    -10.14848323	     -2.46121532	     58.99453337	     90.00000001	      0.00000000	      0.00000000
      3.60000000	      3.48881496	     -3.12920277	     -4.09000839	     -0.03361584	      0.92667927	     -0.08715949	      1.38570967	     -3.79020614	    -19.50501197	     30.59138349	      1.28681752	      0.53392036	     21.72516231	     11.47454459	     -7.56317679	     21.19886901	     -7.75597495	    -20.16693239	     37.99511035	     -4.57695522	      0.66313978	      8.74524822	     -3.92415326	     -7.56317679	    -18.71619503	      3.88880041	     -2.31399676	      9.13648131	    -13.70633804	      7.55489287	     44.63518346	     90.00000001	      0.00000000	      0.00000000	    -14.86205733	     -9.98224714	     -2.89681016	     58.76296442	     90.00000001	      0.00000000	      0.00000000
      3.61000000	      3.24915099	     -3.11056261	     -4.27268171	     -0.03068906	      0.92696114	     -0.08858463	      1.30831973	     -3.93717852	    -19.66706340	     30.28567114	      1.29507312	      0.52858468	     21.65773684	     11.51258129	     -7.56298577	     21.08088901	     -7.79222452	    -20.42919905	     37.82233602	     -4.37470404	      0.66012429	      8.84858698	     -3.91878556	     -7.56298577	    -18.34374574	      3.76150722	     -2.33289170	      9.11993559	    -13.55984340	      7.59544580	     44.83203465	     90.00000001	      0.00000000	      0.00000000	    -14.94498395	     -9.93737120	     -2.93209408	     58.65256691	     90.00000001	      0.00000000	      0.00000000
      3.62000000	      3.43989706	     -3.02188518	     -4.51902744	     -0.02743359	      0.92813999	     -0.09003862	      0.61032178	     -4.23307502	    -19.89911608	     29.67840920	      1.37021206	      0.51798596	     21.27612021	     12.25472338	     -7.56175998	     20.31613667	     -7.66903104	    -21.10899891	     37.35487373	     -4.40675282	      0.65196554	      9.14440849	     -3.33021096	     -7.56175998	    -18.44670558	      3.51259639	     -2.17445560	      8.90333562	    -13.59069692	      7.79441328	     45.53043129	     90.00000001	      0.00000000	      0.00000000	    -14.78958859	     -9.75514075	     -3.25895159	     58.28340765	     90.00000001	      0.00000000	      0.00000000
      3.63000000	      3.20940158	     -3.00266660	     -4.68096906	     -0.02455557	      0.92841968	     -0.09139606	      0.53005036	     -4.37988665	    -20.14307881	     29.38630225	      1.39357376	      0.51288773	     21.22537189	     12.32630763	     -7.56156860	     20.20100242	     -7.70555404	    -21.36470784	     37.20002861	     -4.18823693	      0.64926298	      9.25205947	     -3.24496861	     -7.56156860	    -18.08692201	      3.38566593	     -2.17506580	      8.88435582	    -13.44024393	      7.88447178	     45.71161867	     90.00000001	      0.00000000	      0.00000000	    -14.87321999	     -9.75331656	     -3.29731374	     58.21440412	     90.00000001	      0.00000000	      0.00000000
      3.64000000	      3.45088285	     -2.90917097	     -4.86517601	     -0.02131755	      0.92962367	     -0.09293302	     -0.21437069	     -4.71639430	    -20.62241491	     28.82589271	      1.43867711	      0.50310674	     20.83869506	     13.32621891	     -7.56028722	     19.40064976	     -7.52311295	    -22.00145243	     36.70948121	     -4.25915888	      0.64070131	      9.64643167	     -2.34384879	     -7.56028722	    -18.25778944	      3.15807409	     -2.07894874	      8.69105256	    -13.51413579	      8.31224534	     46.45529812	     90.00000001	      0.00000000	      0.00000000	    -14.75186434	     -9.60228548	     -3.58850937	     57.92496806	     90.00000001	      0.00000000	      0.00000000
      3.65000000	      3.23652485	     -2.91563060	     -5.03716465	     -0.01855463	      0.92989616	     -0.09425182	     -0.27010775	     -4.84061910	    -20.87477075	     28.60784494	      1.47448865	      0.49930109	     20.81232400	     13.37978218	     -7.56012035	     19.29851456	     -7.55866229	    -22.19545487	     36.58917172	     -4.07539436	      0.63860152	      9.73064491	     -2.26052897	     -7.56012035	    -17.93678527	      3.07340528	     -2.06354990	      8.72043427	    -13.36554036	      8.40366779	     46.62321006	     90.00000001	      0.00000000	      0.00000000	    -14.82818027	     -9.60690865	     -3.61232453	     57.87617405	     90.00000001	      0.00000000	      0.00000000
